HIERARCHY
ROOT hip
{
  OFFSET 0 0 0
  CHANNELS 6 Xposition Yposition Zposition Zrotation Yrotation Xrotation
  JOINT abdomen
  {
    OFFSET 0 20.6881 -0.73152
    CHANNELS 3 Zrotation Xrotation Yrotation
    JOINT chest
    {
      OFFSET 0 11.7043 -0.48768
      CHANNELS 3 Zrotation Xrotation Yrotation
      JOINT neck
      {
        OFFSET 0 22.1894 -2.19456
        CHANNELS 3 Zrotation Xrotation Yrotation
        JOINT head
        {
          OFFSET -0.24384 7.07133 1.2192
          CHANNELS 3 Zrotation Xrotation Yrotation
          JOINT leftEye
          {
            OFFSET 4.14528 8.04674 8.04672
            CHANNELS 3 Zrotation Xrotation Yrotation
            End Site
            {
              OFFSET 1 0 0
            }
          }
          JOINT rightEye
          {
            OFFSET -3.6576 8.04674 8.04672
            CHANNELS 3 Zrotation Xrotation Yrotation
            End Site
            {
              OFFSET 1 0 0
            }
          }
        }
      }
      JOINT rCollar
      {
        OFFSET -2.68224 19.2634 -4.8768
        CHANNELS 3 Zrotation Xrotation Yrotation
        JOINT rShldr
        {
          OFFSET -8.77824 -1.95073 1.46304
          CHANNELS 3 Zrotation Xrotation Yrotation
          JOINT rForeArm
          {
            OFFSET -28.1742 -1.7115 0.48768
            CHANNELS 3 Zrotation Xrotation Yrotation
            JOINT rHand
            {
              OFFSET -22.5879 0.773209 7.07136
              CHANNELS 3 Zrotation Xrotation Yrotation
              JOINT rThumb1
              {
                OFFSET -1.2192 -0.487915 3.41376
                CHANNELS 3 Zrotation Xrotation Yrotation
                JOINT rThumb2
                {
                  OFFSET -3.37035 -0.52449 3.41376
                  CHANNELS 3 Zrotation Xrotation Yrotation
                  End Site
                  {
                    OFFSET -1.78271 -1.18214 1.43049
                  }
                }
              }
              JOINT rIndex1
              {
                OFFSET -7.75947 0.938293 5.60832
                CHANNELS 3 Zrotation Xrotation Yrotation
                JOINT rIndex2
                {
                  OFFSET -2.54057 -0.884171 1.56538
                  CHANNELS 3 Zrotation Xrotation Yrotation
                  End Site
                  {
                    OFFSET -1.62519 -0.234802 1.16502
                  }
                }
              }
              JOINT rMid1
              {
                OFFSET -8.24714 1.18213 3.41376
                CHANNELS 3 Zrotation Xrotation Yrotation
                JOINT rMid2
                {
                  OFFSET -3.10165 -0.590103 1.0647
                  CHANNELS 3 Zrotation Xrotation Yrotation
                  End Site
                  {
                    OFFSET -2.48547 -0.328903 0.83742
                  }
                }
              }
              JOINT rRing1
              {
                OFFSET -8.82822 0.546677 1.51678
                CHANNELS 3 Zrotation Xrotation Yrotation
                JOINT rRing2
                {
                  OFFSET -2.60934 -0.819778 -0.0198488
                  CHANNELS 3 Zrotation Xrotation Yrotation
                  End Site
                  {
                    OFFSET -2.33842 -0.294052 0.168128
                  }
                }
              }
              JOINT rPinky1
              {
                OFFSET -8.27202 -0.0477905 -0.4584
                CHANNELS 3 Zrotation Xrotation Yrotation
                JOINT rPinky2
                {
                  OFFSET -1.82734 -0.647385 -0.700984
                  CHANNELS 3 Zrotation Xrotation Yrotation
                  End Site
                  {
                    OFFSET -1.69225 -0.51767 -0.607171
                  }
                }
              }
            }
          }
        }
      }
      JOINT lCollar
      {
        OFFSET 2.68224 19.2634 -4.8768
        CHANNELS 3 Zrotation Xrotation Yrotation
        JOINT lShldr
        {
          OFFSET 8.77824 -1.95073 1.46304
          CHANNELS 3 Zrotation Xrotation Yrotation
          JOINT lForeArm
          {
            OFFSET 28.1742 -1.7115 0.48768
            CHANNELS 3 Zrotation Xrotation Yrotation
            JOINT lHand
            {
              OFFSET 22.5879 0.773209 7.07136
              CHANNELS 3 Zrotation Xrotation Yrotation
              JOINT lThumb1
              {
                OFFSET 1.2192 -0.487915 3.41376
                CHANNELS 3 Zrotation Xrotation Yrotation
                JOINT lThumb2
                {
                  OFFSET 3.37035 -0.52449 3.41376
                  CHANNELS 3 Zrotation Xrotation Yrotation
                  End Site
                  {
                    OFFSET 1.78271 -1.18214 1.43049
                  }
                }
              }
              JOINT lIndex1
              {
                OFFSET 7.75947 0.938293 5.60832
                CHANNELS 3 Zrotation Xrotation Yrotation
                JOINT lIndex2
                {
                  OFFSET 2.54057 -0.884171 1.56538
                  CHANNELS 3 Zrotation Xrotation Yrotation
                  End Site
                  {
                    OFFSET 1.62519 -0.234802 1.16502
                  }
                }
              }
              JOINT lMid1
              {
                OFFSET 8.24714 1.18213 3.41376
                CHANNELS 3 Zrotation Xrotation Yrotation
                JOINT lMid2
                {
                  OFFSET 3.10165 -0.590103 1.0647
                  CHANNELS 3 Zrotation Xrotation Yrotation
                  End Site
                  {
                    OFFSET 2.48547 -0.328903 0.83742
                  }
                }
              }
              JOINT lRing1
              {
                OFFSET 8.82822 0.546677 1.51678
                CHANNELS 3 Zrotation Xrotation Yrotation
                JOINT lRing2
                {
                  OFFSET 2.60934 -0.819778 -0.0198488
                  CHANNELS 3 Zrotation Xrotation Yrotation
                  End Site
                  {
                    OFFSET 2.33842 -0.294052 0.168128
                  }
                }
              }
              JOINT lPinky1
              {
                OFFSET 8.27202 -0.0477905 -0.4584
                CHANNELS 3 Zrotation Xrotation Yrotation
                JOINT lPinky2
                {
                  OFFSET 1.82734 -0.647385 -0.700984
                  CHANNELS 3 Zrotation Xrotation Yrotation
                  End Site
                  {
                    OFFSET 1.69225 -0.51767 -0.607171
                  }
                }
              }
            }
          }
        }
      }
    }
  }
  JOINT rButtock
  {
    OFFSET -8.77824 4.35084 1.2192
    CHANNELS 3 Zrotation Xrotation Yrotation
    JOINT rThigh
    {
      OFFSET 0 -1.70687 -2.19456
      CHANNELS 3 Zrotation Xrotation Yrotation
      JOINT rShin
      {
        OFFSET 0 -36.8199 0.73152
        CHANNELS 3 Zrotation Xrotation Yrotation
        JOINT rFoot
        {
          OFFSET 0.73152 -45.1104 -5.12064
          CHANNELS 3 Zrotation Xrotation Yrotation
          End Site
          {
            OFFSET -1.1221 -3.69964 12.103
          }
        }
      }
    }
  }
  JOINT lButtock
  {
    OFFSET 8.77824 4.35084 1.2192
    CHANNELS 3 Zrotation Xrotation Yrotation
    JOINT lThigh
    {
      OFFSET 0 -1.70687 -2.19456
      CHANNELS 3 Zrotation Xrotation Yrotation
      JOINT lShin
      {
        OFFSET 0 -36.8199 0.73152
        CHANNELS 3 Zrotation Xrotation Yrotation
        JOINT lFoot
        {
          OFFSET -0.73152 -45.1104 -5.12064
          CHANNELS 3 Zrotation Xrotation Yrotation
          End Site
          {
            OFFSET 1.1221 -3.69964 12.103
          }
        }
      }
    }
  }
}
MOTION
Frames:	6
Frame Time:	0.03333
-20.9202 67.2996 31.384800000000002 -25.976436 -85.712618 26.323576 11.972104 6.040976 -0.0 0.870749 -8.615129 25.564473 6.727122 12.679888 129.321885 -4.243316 12.183241 -141.203662 -0.002149 -0.0 0.002969 -0.00113 0.0 -0.000779 -155.548394 -3.804534 161.899165 128.661039 31.395727 -133.877738 -159.467284 -12.674902 109.006112 158.52306 -43.066183 136.647626 4.53017 -4.514384 -0.521579 19.635614 -36.912064 -17.863716 -151.352596 -17.158222 121.13394 -98.992138 54.226224 79.310694 -151.476142 17.842029 137.539913 -5.011971 21.26912 4.79762 -145.10138 -1.521293 -178.650529 12.070694 52.985958 -2.679919 -26.564814 -38.860558 -25.606358 30.045697 75.012503 5.263861 49.463859 -86.456803 71.136375 81.980235 47.306356 -95.875607 179.160791 38.619656 -117.019751 -176.390441 -11.783861 -143.563835 -93.028388 -51.083829 -40.500978 161.185353 -25.778809 -125.644991 14.228859 19.20308 -9.560594 -178.914766 -35.470991 -106.196246 -4.178967 -12.845755 1.969745 163.256063 -4.564069 -143.324194 -0.005116 0.917731 -0.288642 154.309586 12.769566 -170.105917 25.537367 -38.088016 24.597419 80.096461 -54.182881 80.419522 -0.001959 0.001227 -0.0 -27.692375 -31.612263 -85.286171 -95.892718 39.653495 -55.970696 -95.901172 59.523231 -166.968031 0.003255 -5.8e-05 0.001627 -8.653185 -39.020134 -135.759914 -53.350861 -33.41289 -174.85879 1.516127 -56.442577 -81.838267
-19.9844 67.785 32.3179 -17.499993 -83.264611 17.842976 9.508193 3.344371 88.315536 -5.777771 -3.655138 -63.19517 -2.765367 -1.796549 3.497036 2.701281 3.181707 -15.17315 0.001335 0.0 0.000332 0.001335 0.0 0.000332 -9.651371 34.836322 11.198601 -89.669385 16.35598 89.313357 -99.456688 -36.880878 -97.291035 15.06824 -36.925789 7.026293 93.028367 -51.084663 40.500977 -161.814657 -27.841512 126.468044 -0.687779 1.108519 0.392729 -79.597241 48.076647 62.020905 -125.645078 49.84158 115.27655 -4.652523 20.780969 4.546283 -145.111487 -0.668124 -178.918047 -7.124899 -61.374761 -28.159888 -3.60292 -8.611068 -3.363811 -147.591874 13.090073 -144.018348 0.16516 0.97921 -0.218778 35.748494 49.283265 -19.521289 -96.982126 85.241474 157.958462 -177.946924 -7.429858 -143.603131 0.544412 0.536013 -0.08612 112.813375 -0.280626 -102.422119 50.387051 40.825819 -40.024906 -32.975077 -37.515272 -0.771983 -68.985353 -80.153516 -40.579887 10.983119 32.18629 -8.725941 145.098831 -1.521151 178.650261 66.691326 87.685424 -80.082285 157.327261 57.246845 150.512 127.366635 -30.012621 124.26837 179.975817 75.750551 0.019897 147.922286 38.743516 115.179252 94.914764 -22.315184 -169.11065 6.282865 -62.985929 102.687833 0.000669 0.000341 -0.00086 -10.404241 -36.493076 -7.408457 -0.218462 53.874205 51.959293 -113.794933 27.397268 17.310633
-18.8528 68.5817 33.381899999999995 -15.012224 -80.867953 15.434464 10.097762 3.198376 87.559145 -5.513431 -3.962889 -62.384292 -11.155665 5.896212 -63.403879 8.61419 7.283866 51.587636 0.003076 0.0 0.003297 0.003139 -0.0 -0.002018 -143.334211 38.77124 147.775018 -43.135647 65.98997 -6.847198 -164.221621 36.823356 -144.957819 -4.617205 19.061478 0.731002 51.059652 -41.203987 12.856849 -4.003217 -61.267179 -40.199 10.281223 -18.182774 -4.585369 -173.247853 -32.057371 107.835831 -57.866896 59.219342 50.524193 -13.29712 36.39353 10.8157 0.001184 0.063789 0.019928 -155.45419 -1.618297 172.043344 5.66293 16.871964 5.089873 -40.490985 -49.916423 -40.455297 -0.11817 -0.714108 0.157309 20.463925 -2.400788 -10.354304 -109.794933 -38.617582 -110.534162 93.488495 70.307062 -72.250917 85.829584 38.630901 -47.955296 101.323252 -8.214413 -70.323724 46.208345 39.652727 -36.3186 178.994155 -31.823436 -109.646098 82.841136 61.111063 -74.532003 -3.401714 0.079261 -0.168536 0.014308 -1.323079 0.416364 154.126835 12.763 -170.106637 161.701903 70.563809 151.030441 156.896626 39.241779 146.871284 179.996535 75.751339 0.003575 150.479723 43.769328 20.956894 94.920056 55.459068 -8.634894 -143.240165 21.748748 80.529532 -0.000875 6.6e-05 0.001125 -10.601999 -35.520715 -6.379024 0.330045 50.20236 41.597967 10.627395 -23.996413 -51.216874
-17.588 69.3891 34.3337 -10.202606 -78.464005 11.169224 10.003197 2.410817 93.361417 -5.295435 -3.587862 -68.605833 -9.953575 13.765576 -110.308192 8.809411 12.268752 98.872335 0.00383 0.0 0.001059 0.00383 0.0 0.001059 -151.261799 17.589708 156.535056 136.200829 17.539747 -156.564507 176.965038 -28.225323 96.058079 166.119502 -23.881857 142.890372 -1.660415 1.633005 0.278559 -30.071721 23.211807 27.48301 -90.225294 41.071783 75.796645 -177.883318 -31.897667 112.827312 -167.374449 -28.00854 145.269545 -42.538615 58.276867 36.560826 -145.119666 0.185302 -179.186781 11.795626 26.179291 -6.016673 -86.000619 -50.498756 -84.371207 -24.167019 -40.902135 -26.194976 151.972658 14.764373 -157.372061 135.187834 -28.110999 174.917054 176.379121 43.377149 -114.845 -176.713902 -12.97391 -143.469954 176.598704 -14.212885 -89.691936 -54.370754 -70.742566 -41.310499 -37.215866 -57.917774 0.642446 105.821031 43.391008 -88.114275 8.41735 20.880236 -5.645652 -3.510818 -0.593455 0.091097 13.619537 -53.679597 25.683251 -14.04614 0.624949 2.118953 124.849871 -29.037552 122.620742 24.821874 -40.53344 26.794623 -179.742381 75.750174 -0.198561 154.927339 45.449327 -82.464136 -91.682953 25.175361 -179.313442 -143.762219 -28.519605 96.92183 179.893713 75.750079 0.081921 167.5871 39.897998 18.939343 11.637929 56.392438 134.972042 -72.9006 -7.677453 -177.448091
-16.0493 70.0648 35.3647 -8.471288 -75.81986 10.289288 14.723989 2.035503 -82.302615 5.158861 -1.691882 107.127506 9.060052 9.18272 104.23883 -4.888127 12.740175 -116.370398 0.000734 -0.0 -0.000598 0.000734 -0.0 -0.000598 -82.877071 68.299655 86.000752 -91.011492 41.138864 50.91417 97.292999 26.532703 -100.464533 -155.967715 61.888961 133.162192 71.83158 -48.263744 25.791131 -155.340713 -26.402883 127.362665 -173.761627 -52.873206 119.824665 -83.706777 55.776985 68.694055 1.280578 -3.803207 -0.680113 -42.081679 58.555558 36.10184 -145.10007 -1.521852 -178.649477 -153.183701 -19.043474 -176.448325 34.187279 84.166867 4.361512 -21.579364 -37.161461 -21.777595 149.905023 22.421889 -154.975675 -31.388632 -13.608984 8.971166 2.733716 0.112106 62.585358 -173.767386 -21.893045 -143.012472 178.519611 -16.064163 -89.475396 165.554851 -2.91171 -90.496043 -10.747224 -19.047977 4.724618 164.397591 -20.98936 -110.212862 -7.904812 -24.807522 3.012314 164.080494 -6.96587 -143.548145 145.121897 1.121377 179.48108 155.621719 1.332245 179.395347 150.030042 28.966724 145.935568 25.939056 -40.227202 26.935385 -0.000464 -0.000392 0.000597 -17.847149 -24.995733 80.560732 84.44 -35.646395 -1.496693 -136.328321 27.271905 79.739525 -0.001172 -0.000139 -0.001758 -11.622845 -36.731612 180.0 4.853793 -56.833176 8.154875 -56.411028 28.347717 162.91082
-14.158499999999998 70.6164 36.578 -6.379671 -73.43362 9.21172 14.340494 1.219055 -85.242862 4.764157 -1.668479 109.528015 2.945565 17.455111 168.184928 2.310569 17.279427 179.388314 0.002258 0.0 0.003404 0.002258 0.0 0.003404 -13.743499 42.431565 15.569202 170.90604 -1.029678 111.470058 -31.751817 -80.635635 -116.119279 158.251622 -37.842747 138.324957 1.578241 -1.56467 -0.220889 -9.265532 9.965448 6.933182 -138.49327 4.895914 114.86421 -161.484001 -11.032846 118.844498 -171.869259 -41.091274 145.160784 179.830818 -48.661688 140.955375 -145.119497 0.185745 -179.185881 11.804297 26.401122 -5.993149 31.478391 83.084304 6.681481 -5.649341 -15.902568 -7.007544 85.537796 68.182245 -88.688794 -94.15204 74.037265 84.472761 -15.148283 -25.090362 57.627434 179.54832 -0.654082 -143.372932 78.030781 38.689387 -42.412526 -149.487023 -53.439982 -64.834386 152.10572 -18.555886 -121.369063 156.959034 -6.756557 -119.295056 -5.154398 -15.975694 2.315927 163.309438 -4.703552 -143.333822 145.10038 -1.521046 178.650034 -12.214604 36.613572 4.850179 -17.10406 59.931759 -12.736662 147.670232 9.624373 142.6103 -179.997165 75.749221 -0.002925 161.288404 50.565159 14.423086 71.598523 61.275323 143.142137 107.148741 -9.349908 -153.113806 -179.997165 75.749221 -0.002925 168.613183 37.888218 -161.843574 1.156044 -54.590372 -6.792128 146.189611 20.202675 -172.328988
